With: Donald Sutherland, Christian Slater and Jill Hennessy

Kort nadat John Mason weer in contact is gekomen met zijn vervreemde vader wordt hij tijdens een trein overval neergeschoten en zijn vader gedood. Wanneer hij op een nabijgelegen ranch herstelt van zijn verwondingen wordt hij verliefd op de lokale bewoonster Alice. Wat hij echter niet weet is dat de man die verantwoordelijk is voor de dood van zijn vader vlakbij is...

After his father is killed, John Mason is willing to turn the world inside out to find the man responsible. What he doesn't know is the killer might be in his own house. 
 
http://www.imdb.com/title/tt2014202	

------------------------ Dutch Friends ------------------------
---------------------------------------------------------------
- Bezoek ook eens mijn vrienden op:  http://www.Film-Test.nl --
----- voor mijn Nederlandse Sync. ondertitels ---- en meer ----
------- http://www.Film-Test.nl ---- Over Films en meer -------
---------------------------------------------------------------

General:

Complete name                    : Dawn RiderDawn Rider.avi
Format                           : AVI
Format/Info                      : Audio Video Interleave
File size                        : 1.34 GiB
Duration                         : 1h 33mn
Overall bit rate                 : 2 043 Kbps

Video:

Format                           : MPEG-4 Visual
Format profile                   : Simple@L3
Format settings, BVOP            : No
Format settings, QPel            : No
Format settings, GMC             : No warppoints
Format settings, Matrix          : Default (H.263)
Codec ID                         : XVID
Codec ID/Hint                    : XviD
Duration                         : 1h 33mn
Bit rate                         : 1 584 Kbps
Width                            : 704 pixels
Height                           : 396 pixels
Display aspect ratio             : 16:9
Frame rate                       : 25.000 fps
Color space                      : YUV
Chroma subsampling               : 4:2:0
Bit depth                        : 8 bits
Scan type                        : Progressive
Compression mode                 : Lossy
Bits/(Pixel*Frame)               : 0.227
Stream size                      : 1.04 GiB (78%)
Writing library                  : XviD 1.1.2 (UTC 2006-11-01)

Audio:

Format                           : AC-3
Format/Info                      : Audio Coding 3
Mode extension                   : CM (complete main)
Codec ID                         : 2000
Duration                         : 1h 33mn
Bit rate mode                    : Constant
Bit rate                         : 448 Kbps
Channel(s)                       : 6 channels
Channel positions                : Front: L C R, Side: L R, LFE
Sampling rate                    : 48.0 KHz
Bit depth                        : 16 bits
Compression mode                 : Lossy
Stream size                      : 300 MiB (22%)
Alignment                        : Aligned on interleaves
Interleave, duration             : 32 ms (0.80 video frame)
Interleave, preload duration     : 96 ms